<?xml version="1.0" standalone="no"?>
<!DOCTYPE svg PUBLIC "-//W3C//DTD SVG 20010904//EN"
 "http://www.w3.org/TR/2001/REC-SVG-20010904/DTD/svg10.dtd">
<svg version="1.0" xmlns="http://www.w3.org/2000/svg"
 width="300.000000pt" height="264.000000pt" viewBox="0 0 300.000000 264.000000"
 preserveAspectRatio="xMidYMid meet">

<g transform="translate(0.000000,264.000000) scale(0.100000,-0.100000)"
fill="#000000" stroke="none">
<path d="M0 1320 l0 -1320 1500 0 1500 0 0 1320 0 1320 -1500 0 -1500 0 0
-1320z m1300 1167 c-57 -120 -57 -196 0 -271 39 -52 66 -104 57 -112 -3 -4
-20 2 -37 12 -24 15 -37 35 -56 89 -13 39 -24 88 -24 111 0 44 25 125 59 192
33 65 34 50 1 -21z m614 19 c27 -33 31 -45 30 -94 -2 -54 -3 -57 -59 -111 -53
-50 -58 -53 -67 -35 -6 10 -21 29 -35 40 l-25 21 36 22 c77 48 102 107 76 176
-14 37 6 29 44 -19z m-814 -10 c-13 -34 -2 -56 57 -117 l45 -47 -24 -41 c-12
-22 -26 -41 -29 -41 -4 0 -25 17 -49 38 -33 29 -44 47 -50 84 -11 55 0 101 31
135 27 28 33 25 19 -11z m373 -88 c-5 -9 -37 -11 -46 -2 -3 3 4 33 16 67 l22
60 6 -59 c4 -32 5 -62 2 -66z m187 78 c0 -12 -5 -7 -19 24 -11 24 -11 24 3 6
9 -11 16 -24 16 -30z m-130 -72 c0 -2 -9 -4 -20 -4 -17 0 -20 7 -20 48 l0 47
20 -44 c11 -24 20 -45 20 -47z m149 -33 c1 -74 -5 -61 -11 24 -3 40 -2 61 3
50 4 -11 8 -44 8 -74z m-989 43 c0 -8 -5 -14 -11 -14 -7 0 -33 -13 -60 -30
-29 -17 -51 -25 -54 -19 -10 15 13 38 64 64 48 24 61 24 61 -1z m953 -37 c3
-22 2 -35 -4 -32 -5 4 -9 22 -9 42 0 45 5 40 13 -10z m86 -58 c1 -31 -6 -76
-14 -99 -8 -23 -15 -53 -15 -66 0 -24 -26 -46 -67 -59 -22 -6 -22 -6 -9 33 8
22 29 68 47 103 25 47 35 80 38 129 5 77 18 50 20 -41z m642 65 c14 -7 31 -20
38 -28 26 -31 0 -32 -63 -2 -51 24 -63 33 -54 43 11 14 33 10 79 -13z m-783
-36 c-10 -31 -112 -46 -180 -27 -61 16 -44 26 40 21 42 -2 88 1 102 6 34 14
42 14 38 0z m-301 -30 c-3 -7 -5 -2 -5 12 0 14 2 19 5 13 2 -7 2 -19 0 -25z
m-1082 -68 c5 -8 10 -67 10 -130 0 -103 3 -122 28 -180 18 -43 41 -77 67 -100
l41 -35 -30 -80 c-16 -44 -35 -113 -42 -152 -7 -40 -16 -73 -19 -73 -8 1 -65
81 -83 116 -13 24 -14 40 -7 65 14 48 13 49 -19 49 -36 0 -44 11 -67 82 l-18
58 24 25 c21 22 22 28 10 35 -8 5 -18 10 -22 10 -24 0 0 259 33 358 l11 34 36
-34 c20 -18 41 -40 47 -48z m2720 -41 c21 -109 16 -213 -14 -311 -15 -46 -27
-69 -41 -73 -18 -6 -18 -8 -5 -29 14 -21 12 -27 -34 -102 -27 -43 -68 -99 -92
-124 l-42 -45 -8 35 c-4 19 -20 90 -35 158 l-28 123 23 37 c42 70 62 127 74
203 9 67 14 77 36 87 31 14 70 49 107 97 14 19 30 35 34 35 4 0 15 -41 25 -91z
m-1386 -4 c19 -126 17 -132 -29 -140 -70 -12 -80 -3 -80 73 0 37 3 84 6 105 6
36 8 37 49 37 l43 0 11 -75z m251 13 c14 -50 2 -68 -33 -49 -23 12 -23 14 -9
57 17 51 27 49 42 -8z m-560 -6 c11 -29 11 -35 -4 -50 -15 -15 -17 -15 -32 0
-13 13 -14 21 -3 57 13 45 19 44 39 -7z m524 -139 l6 -42 -54 -25 c-29 -14
-89 -35 -132 -47 -104 -28 -164 -22 -264 28 -75 38 -75 38 -78 82 -5 69 2 74
46 31 74 -69 211 -88 337 -45 73 25 115 53 116 78 0 21 1 21 8 2 5 -11 11 -39
15 -62z m256 -103 c0 -10 -14 -43 -32 -74 -31 -54 -34 -56 -74 -56 -65 0 -104
11 -115 33 -10 18 -9 19 12 13 13 -4 51 -9 84 -12 70 -6 58 7 -23 26 -29 7
-51 14 -48 17 3 3 31 5 64 4 67 -1 102 22 102 66 0 21 2 24 15 13 8 -7 15 -20
15 -30z m-994 5 c-16 -62 72 -85 158 -41 l48 24 -22 -24 c-13 -13 -47 -33 -76
-45 -88 -37 -65 -55 25 -20 46 17 48 17 44 1 -6 -24 -161 -49 -175 -28 -41 61
-48 100 -22 136 20 29 28 28 20 -3z m848 -14 c-5 -5 -22 -13 -39 -16 -30 -7
-30 -7 5 12 35 19 52 21 34 4z m-77 -7 c-3 -3 -12 -4 -19 -1 -8 3 -5 6 6 6 11
1 17 -2 13 -5z m-515 -63 c-3 -35 2 -60 18 -90 20 -40 20 -81 -1 -81 -15 0
-70 82 -65 99 3 9 10 42 16 73 14 71 37 71 32 -1z m457 22 c25 -95 24 -106 -8
-151 -35 -47 -47 -52 -56 -21 -5 14 0 31 15 51 19 26 22 39 17 88 -4 31 -4 60
0 64 14 13 23 5 32 -31z m-378 -20 c13 -16 12 -17 -3 -4 -10 7 -18 15 -18 17
0 8 8 3 21 -13z m269 2 c-7 -9 -15 -13 -17 -11 -7 7 7 26 19 26 6 0 6 -6 -2
-15z m-87 -27 c-11 -63 -38 -77 -38 -22 0 34 6 42 42 53 1 1 0 -14 -4 -31z
m752 22 c-3 -5 -21 -12 -40 -16 -19 -3 -35 -10 -35 -15 0 -12 72 -11 105 1 14
5 24 6 21 1 -13 -21 -166 -42 -166 -23 0 22 34 51 63 55 17 2 38 5 45 5 7 1
11 -2 7 -8z m-819 -14 c3 -8 4 -26 2 -40 -4 -34 -23 -21 -33 22 -5 26 -3 32
10 32 8 0 18 -6 21 -14z m-685 -36 c9 0 19 -7 23 -15 4 -12 -5 -15 -52 -14
-31 1 -44 4 -28 6 l28 5 -33 28 -34 29 40 -19 c21 -11 47 -20 56 -20z m605
-10 c12 0 36 -12 53 -27 16 -15 39 -27 51 -28 11 -1 18 0 16 2 -10 10 58 63
80 63 14 0 34 5 46 11 35 19 32 0 -6 -36 -30 -28 -42 -34 -69 -30 -18 3 -26 2
-19 -1 9 -4 3 -13 -19 -30 l-33 -24 -30 20 c-17 11 -30 24 -28 30 1 5 -4 10
-12 10 -8 0 -16 -8 -18 -17 -3 -14 -12 -9 -46 25 -48 48 -54 67 -14 46 15 -7
37 -14 48 -14z m-802 -47 c22 -9 90 -19 151 -22 l109 -6 47 -80 c26 -44 43
-81 38 -83 -9 -4 -68 24 -169 80 -49 26 -62 29 -119 25 -61 -5 -65 -4 -100 29
-21 18 -42 49 -48 68 l-11 35 30 -15 c17 -9 49 -23 72 -31z m1846 7 c-19 -17
-50 -32 -70 -35 -77 -12 -118 -29 -195 -81 -44 -29 -95 -57 -114 -60 -38 -8
-41 -16 32 92 l48 71 117 6 c64 3 137 12 162 20 25 8 47 15 50 16 3 0 -11 -13
-30 -29z m-797 -15 c-18 -25 -33 -32 -33 -16 0 7 37 39 48 40 2 1 -5 -10 -15
-24z m-474 -97 c-9 -22 -8 -33 3 -50 8 -13 12 -33 8 -47 -5 -23 -7 -22 -22 15
-21 50 -32 181 -15 187 20 7 39 -73 26 -105z m691 52 c0 -50 -5 -68 -30 -108
-17 -26 -29 -38 -28 -27 2 11 7 23 12 27 13 9 18 106 6 113 -13 8 10 55 27 55
9 0 13 -17 13 -60z m-756 34 c3 -9 6 -30 6 -47 l-1 -32 -19 35 c-11 19 -19 41
-20 48 0 18 27 15 34 -4z m816 11 c0 -13 -32 -66 -37 -62 -10 11 9 67 23 67 8
0 14 -2 14 -5z m-540 -19 c0 -2 -7 -7 -16 -10 -8 -3 -12 -2 -9 4 6 10 25 14
25 6z m410 -43 c0 -10 -6 -12 -20 -8 -27 8 -25 -10 2 -29 12 -9 19 -19 15 -22
-4 -4 -15 0 -25 9 -10 10 -22 17 -25 17 -14 0 -6 -28 13 -45 11 -10 20 -22 20
-27 0 -13 -22 -9 -42 9 -27 25 -30 12 -6 -36 19 -38 19 -44 5 -58 -14 -14 -17
-9 -37 57 -12 40 -24 80 -27 89 -4 14 -3 14 6 1 9 -13 18 -8 54 31 29 31 46
42 55 36 6 -5 12 -16 12 -24z m-324 8 l24 -19 -48 -16 c-49 -17 -107 -65 -86
-73 7 -2 4 -26 -7 -71 -10 -37 -18 -87 -18 -111 -1 -39 -3 -42 -17 -30 -24 19
-15 93 27 218 24 74 39 106 54 112 31 12 45 10 71 -10z m145 -2 c4 -7 24 -68
44 -136 33 -110 36 -128 24 -151 l-12 -27 -9 45 c-5 25 -18 73 -29 108 -10 34
-19 71 -19 82 0 22 -36 50 -66 50 -31 0 -36 11 -17 32 19 21 70 18 84 -3z
m-347 -33 c8 -14 24 -27 34 -30 18 -6 18 -8 1 -59 -10 -28 -18 -60 -19 -69 0
-10 -5 -18 -11 -18 -7 0 -8 7 -4 18 20 50 24 76 12 84 -19 12 -25 10 -37 -13
-7 -11 -14 -18 -17 -16 -2 3 3 19 11 36 22 42 20 58 -4 36 -22 -20 -26 -9 -8
30 14 31 21 31 42 1z m262 -11 l29 -15 -25 0 c-14 0 -45 -9 -69 -20 -27 -13
-39 -15 -32 -7 6 8 8 17 4 20 -3 4 3 7 15 7 12 0 27 7 34 15 16 18 11 18 44 0z
m795 -54 c46 -28 74 -71 85 -129 3 -16 1 -32 -4 -36 -11 -7 -126 9 -158 21
-11 4 -15 3 -11 -5 4 -6 38 -20 75 -33 100 -33 135 -53 175 -103 82 -100 108
-214 72 -320 -15 -44 -15 -45 21 -113 19 -38 38 -87 41 -110 5 -39 4 -41 -38
-67 l-44 -26 44 6 c48 8 48 8 14 -74 l-14 -35 -82 6 c-45 4 -95 10 -112 13
-27 7 -29 6 -16 -10 8 -9 12 -18 10 -20 -12 -9 -76 -26 -102 -26 -27 0 -29 2
-23 28 3 15 9 77 12 137 5 88 3 123 -11 175 -32 118 -33 110 13 110 25 0 64
-12 106 -33 36 -19 66 -30 66 -27 0 18 -92 90 -129 101 -23 7 -41 16 -41 20 0
4 15 22 33 38 17 17 26 31 20 31 -7 0 -13 6 -13 13 0 47 -92 186 -151 228 -27
19 -25 14 20 -47 50 -70 91 -157 91 -196 0 -50 -76 -88 -109 -55 -8 7 -42 12
-94 12 l-82 0 -22 45 c-41 80 -27 173 38 259 36 47 37 51 16 46 -15 -4 -28 0
-38 11 -13 15 -14 15 -19 -7 l-6 -24 -12 22 c-19 35 3 63 49 63 67 0 131 28
199 85 35 30 69 55 75 55 6 0 31 -13 56 -29z m-733 -9 c2 -13 -3 -25 -13 -28
-23 -9 -30 3 -14 22 13 16 11 17 -16 9 -16 -5 -47 -9 -68 -8 -29 1 -37 -2 -33
-13 6 -15 -29 -38 -44 -29 -13 8 -12 36 1 55 8 12 9 8 6 -15 -4 -26 -3 -27 7
-12 20 27 77 47 126 44 38 -2 45 -6 48 -25z m-764 -65 c71 -46 86 -52 133 -52
75 0 95 -35 52 -89 -24 -31 -36 -28 -19 4 16 29 5 37 -20 15 -13 -12 -27 -15
-45 -11 -25 6 -25 6 10 -39 58 -77 70 -178 32 -268 -16 -37 -17 -37 -35 -19
-27 27 -138 48 -169 31 -17 -9 -29 -10 -48 -1 -21 10 -25 18 -25 56 0 52 21
117 56 169 30 45 16 49 -20 6 -39 -46 -55 -80 -70 -154 l-14 -65 29 -17 c38
-22 45 -43 15 -43 -29 0 -137 -54 -161 -80 -23 -25 -9 -25 46 0 48 21 99 26
99 10 0 -6 -9 -29 -21 -52 -15 -28 -18 -43 -10 -51 8 -8 6 -16 -5 -28 -11 -12
-20 -54 -27 -123 -8 -76 -15 -106 -25 -106 -22 0 -86 36 -116 66 l-28 29 6
-41 c7 -39 6 -42 -25 -54 -30 -13 -33 -12 -55 14 -33 37 -31 62 6 75 40 14 38
21 -5 14 l-34 -5 10 37 c12 43 77 194 91 211 5 7 5 29 -1 54 -19 83 9 174 76
258 34 42 134 130 170 151 10 5 15 12 12 15 -3 4 -27 -5 -53 -19 -26 -14 -49
-25 -52 -25 -10 0 -3 83 10 108 15 29 52 66 76 75 30 12 76 -5 154 -56z m430
18 c-4 -8 -11 -15 -16 -15 -6 0 -5 6 2 15 7 8 14 15 16 15 2 0 1 -7 -2 -15z
m350 -20 c6 -24 5 -28 -5 -17 -26 25 -28 11 -4 -34 26 -48 32 -84 16 -84 -9 0
-28 45 -49 115 -7 25 -5 32 12 41 25 13 22 15 30 -21z m-176 2 c10 4 11 -7 6
-49 -6 -51 -28 -108 -40 -108 -4 0 -3 30 0 68 6 64 6 66 -9 42 l-16 -25 5 25
c3 14 6 33 6 43 0 14 4 16 18 9 9 -5 23 -7 30 -5z m107 -4 c11 -31 44 -198 39
-203 -8 -8 -22 21 -28 61 -11 66 -26 45 -19 -26 5 -56 4 -65 -11 -65 -13 0
-16 11 -16 62 0 70 -18 70 -27 -1 -5 -38 -18 -59 -28 -49 -5 4 12 174 21 216
6 28 58 32 69 5z m405 -164 c-15 -27 -26 -31 -40 -14 -11 13 -10 20 0 40 13
23 15 24 31 9 14 -12 16 -21 9 -35z m-870 -2 c0 -6 -10 -21 -22 -34 -19 -21
-22 -21 -34 -6 -10 14 -8 22 10 44 15 19 25 24 34 16 6 -5 12 -14 12 -20z
m482 -163 c25 -13 26 -17 16 -34 -16 -25 -25 -25 -65 0 -31 19 -35 19 -68 3
-27 -13 -38 -14 -47 -5 -15 15 0 32 45 49 35 13 77 8 119 -13z m-53 -81 c17
-10 30 -22 28 -27 -4 -13 -69 -34 -128 -42 -47 -6 -50 -9 -81 -62 -29 -51 -32
-53 -40 -33 -5 15 -15 21 -29 19 -47 -7 -26 21 55 70 70 43 93 52 133 53 40 0
44 2 25 10 -13 5 -20 13 -17 19 9 14 19 13 54 -7z m335 -109 c42 -20 76 -38
76 -40 0 -2 -9 -8 -20 -14 -16 -9 -24 -7 -36 5 -8 8 -28 15 -43 15 -27 0 -112
47 -126 69 -4 7 -1 18 5 26 11 13 16 12 40 -5 16 -11 63 -36 104 -56z m-979
56 c17 -4 23 -8 14 -9 -17 -1 -57 -41 -84 -84 -32 -50 -7 -40 53 21 l60 61 17
-40 c10 -21 24 -44 31 -50 10 -8 9 -19 -7 -52 -32 -71 -19 -96 16 -30 11 20
28 46 37 58 17 22 17 22 70 4 29 -10 82 -19 118 -19 51 0 61 -3 47 -11 -10 -6
-27 -25 -38 -42 -19 -30 -19 -30 -14 -6 6 26 5 27 -52 34 -32 4 -73 13 -90 20
-31 13 -33 13 -54 -16 -23 -33 -20 -46 6 -32 11 6 35 5 68 -4 28 -7 59 -13 69
-13 10 0 18 -4 18 -10 0 -5 7 -10 16 -10 10 0 14 -6 10 -17 -3 -10 -7 -35 -10
-55 -4 -21 -9 -54 -12 -74 l-5 -36 -55 7 c-53 6 -65 0 -43 -22 17 -17 -6 -24
-27 -8 -16 11 -20 29 -23 100 -2 57 -7 85 -14 82 -36 -12 -34 -228 3 -287 8
-12 11 -12 28 3 11 10 44 20 80 23 52 6 63 4 68 -10 4 -10 13 -15 21 -12 9 4
13 1 11 -6 -3 -8 -34 -16 -84 -20 -43 -3 -92 -11 -107 -17 -16 -6 -30 -11 -32
-11 -2 0 -11 21 -20 48 -11 28 -19 91 -22 160 -3 61 -9 112 -14 112 -16 0 -22
-25 -28 -109 l-6 -86 -37 3 c-37 3 -38 2 -38 -33 0 -28 -4 -35 -19 -35 -21 0
-31 19 -31 60 0 17 -8 33 -22 42 -21 14 -22 22 -20 104 2 65 0 86 -8 78 -41
-41 -35 -275 9 -386 11 -30 31 -38 31 -13 0 8 1 15 3 15 1 0 35 14 76 30 41
17 76 28 78 26 10 -10 -9 -25 -50 -41 -26 -10 -50 -28 -60 -45 -13 -21 -27
-29 -62 -34 -25 -4 -49 -5 -54 -2 -43 27 -51 390 -10 467 13 26 59 33 74 12
11 -15 16 -16 41 -3 26 12 27 14 9 18 -11 2 -24 10 -28 18 -4 8 -21 14 -37 14
-41 0 -44 13 -16 68 52 103 78 120 151 102z m383 -2 c-3 -7 -15 -18 -29 -25
-13 -7 -26 -23 -29 -35 -6 -24 -38 -35 -68 -23 -11 4 1 17 49 50 67 46 83 53
77 33z m242 -47 c-6 -12 -17 -17 -28 -14 -10 2 -26 -5 -37 -17 l-20 -22 25 11
c20 9 40 6 99 -13 41 -13 78 -30 83 -39 4 -9 23 -26 41 -39 l32 -22 -32 37
c-18 21 -33 44 -33 51 0 30 15 23 44 -21 66 -98 63 -85 28 -141 -24 -36 -41
-51 -62 -56 -27 -5 -29 -8 -19 -24 9 -15 8 -24 -6 -45 -9 -15 -25 -27 -35 -27
-12 0 -20 -11 -24 -34 -8 -41 -27 -59 -52 -49 -16 5 -17 4 -7 -8 9 -11 8 -18
-1 -32 -17 -22 -29 -22 -51 3 -21 23 -35 26 -35 7 0 -11 -12 -12 -54 -6 -61 8
-91 22 -105 47 -17 33 -22 98 -12 167 16 104 29 142 51 148 10 3 38 33 60 68
39 60 44 65 93 75 29 7 56 12 60 13 4 0 3 -8 -3 -18z m585 9 c-3 -5 6 -22 20
-37 24 -27 65 -119 65 -148 0 -18 17 -28 25 -15 10 17 -15 122 -41 168 -20 37
-21 43 -7 40 26 -5 61 -64 85 -141 18 -59 20 -86 15 -186 -3 -72 -12 -139 -24
-176 -16 -52 -22 -60 -43 -60 -18 0 -26 -6 -28 -22 -4 -29 -48 -63 -80 -63
-36 0 -20 -11 29 -20 36 -7 42 -5 46 11 3 11 9 19 14 19 5 0 1 -16 -8 -36 -20
-40 -24 -40 -115 0 -32 14 -59 33 -62 44 -4 11 -35 34 -69 52 -130 69 -153 99
-53 70 72 -20 103 -35 108 -51 3 -9 99 -51 142 -62 27 -6 96 177 96 254 0 62
-14 63 -29 3 -16 -63 -57 -141 -80 -154 -13 -7 -28 -7 -45 0 -29 11 -34 31
-11 50 21 17 13 25 -41 40 -37 11 -47 11 -54 0 -8 -12 -10 -12 -97 15 -9 3 -8
15 3 49 9 25 14 57 11 73 -4 26 -5 26 -11 7 -11 -31 -57 -123 -51 -99 3 10 8
40 11 65 l6 45 -24 -26 c-13 -15 -36 -43 -51 -63 -15 -20 -35 -36 -44 -36 -12
0 -13 3 -4 14 8 10 9 16 1 21 -14 9 -13 35 3 35 6 0 29 28 50 62 49 79 46 108
-17 172 -45 44 -67 88 -26 51 11 -10 48 -32 82 -49 59 -29 63 -33 66 -69 4
-44 20 -49 28 -9 5 23 16 33 54 49 33 14 58 35 80 64 28 40 49 56 73 58 5 1 5
-3 2 -9z m-319 -378 c-14 -28 -31 -54 -37 -57 -10 -7 -99 13 -99 22 0 2 5 13
10 24 12 22 30 25 30 5 0 -8 7 -17 16 -20 12 -5 30 7 58 37 23 24 42 43 44 41
2 -1 -8 -25 -22 -52z m-745 -28 c17 -20 50 -17 56 5 4 15 14 19 49 18 42 0 45
-2 42 -26 -3 -24 -8 -26 -63 -32 -33 -3 -70 -9 -81 -13 -25 -8 -34 14 -33 79
1 38 1 38 9 12 5 -16 14 -35 21 -43z m-271 -30 c0 -35 28 -74 53 -74 20 0 37
22 37 47 0 20 5 23 35 23 32 0 35 -2 35 -29 0 -28 -4 -31 -81 -56 -44 -15 -82
-25 -85 -23 -6 6 -24 106 -24 134 0 17 4 22 15 18 9 -4 15 -19 15 -40z m1418
-11 c-6 -21 -21 -59 -34 -85 l-24 -47 -57 21 c-32 11 -67 30 -79 42 -12 12
-56 32 -98 44 -42 12 -76 27 -76 32 0 20 30 22 77 6 53 -18 93 -21 93 -6 0 6
9 6 23 1 17 -7 21 -15 19 -39 -4 -34 18 -52 61 -52 28 0 47 19 76 78 26 52 33
54 19 5z m-1544 -86 c3 -33 4 -62 2 -64 -2 -2 -16 -1 -32 3 -30 8 -124 95
-124 115 0 7 10 23 21 35 l21 23 53 -26 52 -26 7 -60z m1080 58 c16 -8 34 -12
40 -8 6 3 4 -2 -6 -12 -15 -16 -19 -16 -82 5 -75 25 -89 46 -23 36 23 -4 55
-13 71 -21z m744 -11 c30 -8 28 -27 -9 -69 -21 -23 -48 -40 -82 -50 -54 -16
-123 -20 -130 -7 -3 4 2 23 10 43 13 34 19 38 71 48 31 6 68 18 82 25 31 17
30 17 58 10z m-1308 -93 c0 -5 -6 -14 -14 -20 -10 -8 -16 -8 -25 3 -9 11 -9
15 1 19 21 9 38 8 38 -2z m710 -21 c21 -17 23 -21 10 -30 -11 -7 -19 -4 -32
13 -32 40 -19 49 22 17z m-365 -66 c112 -4 120 -5 131 -26 9 -17 9 -25 1 -30
-17 -11 -195 -9 -247 3 -72 16 -71 15 -58 44 9 21 16 25 32 19 12 -3 75 -8
141 -10z"/>
<path d="M2825 2184 c-22 -14 -46 -28 -53 -33 -9 -5 -11 -17 -7 -34 7 -24 12
-27 54 -27 25 0 52 4 59 9 16 9 13 103 -3 107 -5 1 -28 -9 -50 -22z"/>
<path d="M2746 1994 c-9 -42 -16 -78 -14 -79 8 -8 121 -65 129 -65 14 0 39
101 39 162 l0 58 -68 0 -68 0 -18 -76z"/>
<path d="M2690 1860 l-21 -29 26 -73 c37 -105 39 -107 68 -80 13 12 33 40 46
62 l22 40 -52 55 c-28 30 -55 55 -60 55 -4 0 -17 -13 -29 -30z"/>
<path d="M1264 2065 c-4 -9 -2 -21 4 -27 15 -15 44 -1 40 19 -4 23 -36 29 -44
8z"/>
<path d="M1674 2065 c-4 -9 -2 -21 4 -27 15 -15 44 -1 40 19 -4 23 -36 29 -44
8z"/>
<path d="M1341 2037 c-17 -21 -3 -49 23 -45 15 2 21 10 21 28 0 28 -26 38 -44
17z"/>
<path d="M1580 2035 c-11 -13 -11 -19 3 -32 21 -21 49 -9 45 19 -4 28 -30 35
-48 13z"/>
<path d="M1457 2024 c-4 -4 -7 -18 -7 -30 0 -17 7 -25 26 -30 31 -8 47 6 42
37 -2 17 -10 25 -28 27 -14 2 -29 0 -33 -4z"/>
<path d="M2362 1301 c51 -59 71 -106 76 -173 4 -54 3 -58 -17 -58 -41 0 -19
-21 62 -58 5 -3 4 5 -2 16 -6 11 -11 44 -11 73 0 96 -36 167 -113 221 l-32 23
37 -44z"/>
<path d="M2326 1183 c9 -21 14 -51 11 -69 -7 -43 19 -55 28 -13 5 20 0 43 -15
74 -26 54 -45 60 -24 8z"/>
<path d="M2426 905 c-17 -13 -56 -32 -88 -42 -94 -29 -68 -44 42 -23 61 12 90
33 90 67 0 29 -7 29 -44 -2z"/>
<path d="M500 1208 c-11 -18 -22 -53 -25 -78 -3 -25 -8 -57 -10 -72 -3 -16 -1
-28 3 -28 23 1 31 21 31 76 0 34 6 77 15 97 19 46 12 48 -14 5z"/>
<path d="M597 1203 c-8 -21 -18 -56 -22 -78 -4 -22 -11 -46 -17 -52 -13 -16 0
-16 30 1 21 11 24 20 25 89 1 42 1 77 1 77 -1 0 -8 -17 -17 -37z"/>
<path d="M439 913 c-6 -17 -7 -34 -2 -43 16 -26 80 -51 120 -48 l38 3 -52 29
c-32 18 -58 40 -65 57 -16 36 -26 36 -39 2z"/>
<path d="M810 830 c-6 -21 -12 -70 -13 -107 -2 -57 1 -68 16 -71 15 -3 17 6
17 85 0 48 3 98 6 111 4 13 2 22 -4 22 -6 0 -16 -18 -22 -40z"/>
<path d="M740 829 c-7 -12 -15 -51 -18 -86 -4 -51 -2 -63 10 -63 12 0 17 19
22 81 7 89 4 103 -14 68z"/>
<path d="M1006 819 c-12 -60 -7 -119 9 -119 12 0 15 15 15 75 0 77 -13 100
-24 44z"/>
<path d="M1335 930 c-3 -6 4 -10 17 -10 13 0 34 -3 48 -5 22 -5 21 -3 -5 9
-36 18 -52 19 -60 6z"/>
<path d="M1583 870 c-13 -5 -23 -12 -23 -15 0 -11 37 -4 56 10 22 17 4 20 -33
5z"/>
<path d="M1552 795 c12 -26 23 -31 32 -16 3 5 -5 16 -19 25 -25 16 -25 16 -13
-9z"/>
<path d="M1355 776 c61 -17 105 -19 105 -6 0 6 -20 10 -44 10 -24 0 -59 2 -77
5 -20 2 -14 -1 16 -9z"/>
<path d="M1500 715 c7 -9 15 -13 17 -11 7 7 -7 26 -19 26 -6 0 -6 -6 2 -15z"/>
<path d="M1320 700 c24 -13 97 -24 85 -12 -5 5 -30 12 -55 15 -27 3 -39 2 -30
-3z"/>
<path d="M1470 670 c20 -13 40 -13 40 0 0 6 -12 10 -27 10 -22 0 -25 -2 -13
-10z"/>
<path d="M1440 639 c0 -8 7 -24 15 -35 11 -14 14 -15 14 -4 0 8 -6 24 -14 34
-11 15 -15 16 -15 5z"/>
<path d="M1313 613 c27 -8 51 -12 55 -9 9 10 0 13 -53 19 l-50 5 48 -15z"/>
<path d="M1944 848 c1 -40 -3 -101 -7 -135 -8 -59 -8 -63 11 -63 15 0 21 9 26
46 13 98 3 213 -20 221 -7 2 -10 -22 -10 -69z"/>
<path d="M2033 793 c-1 -65 -2 -127 -4 -138 -6 -29 27 -32 35 -3 9 34 7 157
-3 202 -19 78 -28 58 -28 -61z"/>
</g>
</svg>
